<?xml version="1.0" encoding="utf-8"?>
<!-- Generator: Adobe Illustrator 24.1.0, SVG Export Plug-In . SVG Version: 6.00 Build 0)  -->
<svg version="1.1" id="レイヤー_1" xmlns="http://www.w3.org/2000/svg" xmlns:xlink="http://www.w3.org/1999/xlink" x="0px"
	 y="0px" viewBox="0 0 564.44 226.84" style="enable-background:new 0 0 564.44 226.84;" xml:space="preserve">
<style type="text/css">
	.st0{fill:#85005D;}
	.st1{fill:#FFFFFF;}
	.st2{fill:#3E3A39;}
</style>
<g>
	<circle class="st0" cx="113.42" cy="113.42" r="84.24"/>
	<g>
		<path class="st1" d="M96.2,58.6c-0.56,0.92-0.42,1.16,0.61,1.38c0.31,0.07,0.6,0.26,0.99,0.44c-0.01,0.21-0.04,0.59-0.06,0.97
			c0.04-0.04,0.08-0.08,0.11-0.12c0.4,0.37,1,0.66,1.15,1.11c0.18,0.51-0.05,1.16-0.09,1.66c0.26,0.09,0.51,0.15,0.73,0.27
			c0.18,0.1,0.3,0.32,0.48,0.42c0.51,0.28,0.85,0.42,0.37,1.16c-0.41,0.63-0.77,1.5-0.34,2.36c0.23,0.47-0.12,0.66-0.4,0.84
			c-0.34,0.22-0.48-0.04-0.59-0.33c-0.04-0.09-0.13-0.16-0.21-0.25c0.18-0.26,0.35-0.5,0.52-0.75c-0.04-0.05-0.08-0.11-0.11-0.16
			c-0.24,0.09-0.59,0.1-0.7,0.27c-0.25,0.4-0.47,0.35-0.76,0.08c-0.05,0.15-0.1,0.38-0.13,0.38c-0.85-0.08-0.82,0.82-1.28,1.17
			c-0.33,0.25-0.55,0.72-0.68,1.13c-0.23,0.75-0.34,1.54-0.51,2.31c-0.03,0.14-0.07,0.35-0.17,0.4c-0.84,0.45-1.08,1.5-1.8,1.95
			c-0.91,0.58-1.19,1.47-1.69,2.27c-0.36,0.57-0.85,1.06-1.2,1.64c-0.58,0.94-0.13,1.99,0.41,2.68c0.24,0.3,0.59,0.29,0.9,0.01
			c0.4-0.37,0.51-0.95,0.23-1.32c-0.51-0.66-0.45-0.64,0.23-1.12c0.49-0.35,1.28-0.36,1.45-1.11c0.08-0.38,0.1-0.78,0.15-1.2
			c0.09,0.08,0.2,0.26,0.32,0.26c0.21,0,0.49-0.03,0.63-0.17c0.26-0.24,0.45-0.57,0.65-0.86c0.12-0.17,0.2-0.36,0.32-0.53
			c0.08-0.11,0.19-0.18,0.29-0.27c0.07,0.12,0.19,0.24,0.19,0.36c0,0.29-0.06,0.58-0.1,0.89c-0.18,0-0.35,0-0.63,0
			c0.06,0.36,0.11,0.68,0.17,1c0.03,0.13,0.14,0.27,0.12,0.38c-0.1,0.6,0.07,0.87,0.71,0.81c0.69-0.07,1.04,0.25,1.31,0.83
			c-0.57,0.44-1.19,0.72-1.88,0.75c-0.12,0-0.25-0.45-0.43-0.77c-0.75,0-1.26,0.93-0.8,1.85c0.19,0.39,0.41,0.78,0.97,0.76
			c0.29-0.01,0.59,0.11,0.88,0.15c0.27,0.03,0.54,0.03,0.88,0.05c-0.24,0.75,0.33,0.96,0.79,1.23c0.46,0.27,0.72,0.53,0.58,1.17
			c-0.18,0.79-0.14,1.63-0.2,2.45c0.77-0.82,0.3-1.91,0.67-2.93c0.19,0.04,0.49,0.1,0.78,0.18c0.82,0.22,0.98,0.14,1.36-0.61
			c0.14-0.27,0.34-0.5,0.56-0.81c0.67,1.14,1.36,2.14,0.83,3.43c-0.07,0.17-0.14,0.42-0.28,0.48c-0.52,0.22-0.51,0.56-0.27,1.01
			c-0.23,0.09-0.43,0.17-0.64,0.25c0.06,0.02,0.12,0.05,0.17,0.07c-0.05,0.24-0.11,0.49-0.19,0.84c0.23,0.29,0.01,1.13-0.6,1.38
			c0.14,0.19,0.27,0.37,0.4,0.54c0.13-0.14,0.25-0.3,0.41-0.4c0.11-0.08,0.27-0.08,0.45-0.12c-0.02-1.14,0.41-1.95,1.97-1.87
			c-0.29-0.36-0.43-0.53-0.55-0.67c0.21-0.34,0.46-0.75,0.74-1.21c0.14,0.09,0.34,0.33,0.56,0.36c0.41,0.05,0.92,0.13,1.24-0.06
			c0.85-0.51,0.71,0.31,0.97,0.52c-0.34,0.23-0.62,0.43-0.91,0.63c0.05,0.1,0.11,0.19,0.16,0.29c0.49-0.19,0.97-0.37,1.53-0.58
			c0.04,0.05,0.16,0.22,0.38,0.51c0.05-0.23,0.1-0.35,0.11-0.47c0.04-0.38,0.07-0.76,0.08-1.14c0.01-0.22,0.07-0.59-0.04-0.65
			c-0.79-0.45-0.57-0.99-0.22-1.57c0.03-0.05,0.05-0.12,0.15-0.35c-0.28,0.06-0.53,0.05-0.61,0.16c-0.2,0.26-0.39,0.57-0.46,0.88
			c-0.08,0.37-0.23,0.33-0.53,0.31c-0.57-0.04-1.15,0.04-1.73,0.04c-0.41,0-0.82-0.04-1.22-0.12c-0.05-0.01-0.08-0.33-0.07-0.5
			c0.02-0.19,0.11-0.36,0.11-0.56c0.43-0.53,0.4-0.49-0.22-0.83c-0.25-0.14-0.46-0.51-0.52-0.8c-0.15-0.84,0-1.65,0.63-2.35
			c0.05,0.26,0.11,0.52,0.17,0.82c0.05,0.01,0.16,0.05,0.21,0.02c0.85-0.59,1.69-1.22,2.56-1.78c0.17-0.11,0.6-0.12,0.71,0.01
			c0.42,0.49,0.74,0.24,1.09-0.04c-0.03-0.21-0.06-0.4-0.09-0.6c0.04-0.02,0.07-0.03,0.11-0.05c0.11,0.14,0.22,0.29,0.4,0.52
			c0.48-0.85,1.15-1.12,2.11-0.47c-0.06-0.28-0.11-0.41-0.12-0.54c-0.01-0.42-0.14-0.89,0.5-1.01c0.11-0.02,0.23-0.25,0.26-0.4
			c0.04-0.2,0.01-0.42,0.01-0.63c0.38-0.13,1.02-0.16,1.12-0.41c0.18-0.44,0.55-0.52,0.82-0.76c0.13-0.12,0.32-0.18,0.59-0.32
			c-0.07,0.45-0.12,0.8-0.15,0.99c-0.31,0.17-0.53,0.3-0.78,0.43c0.1,0.2,0.19,0.37,0.27,0.53c-0.65,0.92-0.66,0.99-0.35,1.77
			c0.39-0.05,0.77-0.16,1.11-0.09c0.14,0.03,0.19,0.47,0.3,0.74c0.04-0.01,0.18-0.05,0.36-0.1c0.03,0.23,0.06,0.43,0.08,0.64
			c0.41-0.02,0.78-0.04,1.15-0.06c0.02,0.06,0.05,0.12,0.07,0.18c-0.33,0.13-0.65,0.34-0.99,0.38c-1.21,0.13-1.46,1.12-1.86,1.98
			c-0.01,0.02,0,0.04,0,0.06c-0.13,0.46-0.49,1.07-0.32,1.35c0.31,0.51,0.91,0.87,1.44,1.21c0.44,0.28,0.9,0.44,0.52,1.1
			c-0.06,0.11,0.08,0.32,0.09,0.49c0.02,0.29,0.59,0.69-0.27,0.81c-0.3,0.04-0.52,0.72-0.76,1.12c-0.45,0.77-0.35,1.15,0.34,1.77
			c0.3,0.27,0.48,0.68,0.79,0.95c0.23,0.21,0.56,0.31,0.96,0.34c0.1,0.32,0.2,0.64,0.3,0.97c0.85,0.24,0.8,0.24,0.62,1.2
			c-0.05,0.26,0.26,0.6,0.4,0.9c0.43-0.09,0.63-0.5,1.18-0.31c0.95,0.34,1.29,0.37,1.22,1.39c-0.04,0.65-0.16,1.21,0.17,1.79
			c0.04,0.08-0.14,0.28-0.21,0.43c-0.32,0.64,0.05,1.3,0.77,1.32c0.68,0.02,1.37-0.13,2.02,0c0.72,0.13,1.57-0.01,2.12,0.7
			c0.07,0.09,0.38,0.1,0.5,0.02c0.55-0.34,1.06-0.37,1.58,0.03c0.05,0.04,0.14,0.1,0.16,0.09c0.66-0.51,1.14,0.06,1.69,0.26
			c0.26,0.1,0.58,0.02,0.87,0.02c0.1,0,0.25-0.03,0.29,0.03c0.68,0.79,1.71,0.87,2.56,1.29c0.59,0.29,1.17,0.6,1.78,0.85
			c0.77,0.31,1.19,0.14,1.63-0.59c0.21-0.34,0.41-0.42,0.82-0.19c0.45,0.24,1,0.42,1.48,0.01c0.12-0.11,0.15-0.32,0.3-0.65
			c0.36,0.15,0.74,0.39,1.14,0.46c0.39,0.07,0.82-0.04,1.34-0.08c-0.21,0.47-0.35,0.79-0.53,1.19c0.29,0.07,0.58,0.06,0.76,0.2
			c0.34,0.25,0.66,0.56,0.91,0.9c0.55,0.75,0.91,1.68,1.99,1.86c0.12,0.02,0.26,0.15,0.31,0.26c0.18,0.42,0.31,0.87,0.49,1.3
			c0.05,0.12,0.18,0.21,0.25,0.32c0.09,0.14,0.26,0.32,0.23,0.43c-0.24,0.71,0.33,1.15,0.57,1.67c0.32,0.67,0.59,0.68,1.15,0.22
			c0.49-0.4,0.96-0.82,1.59-1.35c0,0.46,0.1,0.83-0.02,1.09c-0.25,0.54-0.66,0.99-0.93,1.52c-0.21,0.41-0.28,0.89-0.44,1.34
			c-0.16,0.45-0.42,0.87-0.52,1.33c-0.08,0.38-0.03,0.8,0.03,1.2c0.05,0.35-0.04,0.55-0.36,0.72c-0.13,0.07-0.24,0.34-0.21,0.49
			c0.17,0.79,0.36,1.57,0.61,2.34c0.1,0.28,0.41,0.5,0.65,0.78c-0.08,0.16-0.36,0.46-0.38,0.77c-0.02,0.39,0.18,0.8,0.28,1.2
			c0.13,0.49,0.17,1.03,0.86,1.14c0.09,0.01,0.16,0.46,0.15,0.7c-0.01,0.17-0.18,0.33-0.25,0.51c-0.22,0.52-0.26,1-0.13,1.61
			c0.13,0.63-0.23,1.38-0.4,2.07c-0.07,0.29-0.19,0.58-0.29,0.87c-0.07,0.2-0.09,0.43-0.2,0.58c-0.32,0.43-0.48,0.8-0.21,1.37
			c0.13,0.28-0.14,0.75-0.23,1.13c-0.06,0.28-0.17,0.56-0.17,0.84c-0.01,0.38,0.1,0.77,0.08,1.14c-0.02,0.33-0.08,0.61-0.61,0.62
			c-0.36,0.01-0.76,0.36-1.04,0.65c-0.1,0.1,0.05,0.61,0.23,0.75c0.57,0.46,0.95,0.96,0.71,1.77c0.26,0.03,0.44,0.05,0.66,0.08
			c0,0.75,0,1.49,0,2.36c-0.11,0.13-0.33,0.41-0.56,0.69c0.02,0.06,0.04,0.13,0.07,0.19c0.57,0.03,1.13,0.06,1.78,0.09
			c0.01,0.1,0.03,0.3,0.05,0.53c0.59,0.05,0.73,0.34,0.47,0.89c-0.15,0.31-0.19,0.59,0.11,0.91c0.46,0.49,0.65,1.19,1.44,1.42
			c0.22,0.06,0.31,0.67,0.42,1.04c0.05,0.17-0.07,0.4-0.01,0.55c0.22,0.52-0.01,0.8-0.32,1.22c-0.24,0.33-0.67,0.84-0.28,1.45
			c0.19,0.3,0.14,0.71-0.27,0.94c-0.12,0.07-0.23,0.18-0.34,0.27c0.32,0.73,0.41,1.56,1.29,1.86c0.1,0.03,0.17,0.13,0.26,0.16
			c0.62,0.21,0.62,0.21,0.43,0.76c0.26,0.22,0.5,0.58,0.75,0.59c0.33,0.01,0.69-0.23,1-0.43c0.14-0.09,0.18-0.33,0.27-0.5
			c0.07-0.12,0.17-0.33,0.26-0.33c0.9,0,1.59-0.47,2.34-1.01c-0.11,0.93,0.51,1.73,0.25,2.72c-0.12,0.47,0.27,1.07,0.41,1.57
			c0.5,0.18,1.03-0.68,1.43,0.17c0.21,0.45,0.52,0.85,0.85,1.38c0.83-0.25,1.75-0.52,2.72-0.81c0,0.64-0.02,1.15,0.01,1.67
			c0.03,0.48,0.46,0.49,0.72,0.37c0.62-0.28,0.92,0.23,1.23,0.51c0.21,0.18,0.38,0.66-0.22,0.83c-0.84,0.23-1.01,0.98-1.23,1.7
			c0.42,0.02,0.97,0.53,0.92,0.9c-0.07,0.55,0.2,0.82,0.68,0.91c0.55,0.1,0.55,0.47,0.46,0.86c-0.11,0.53-0.27,1.05-0.44,1.71
			c0.58-0.1,0.87,0.01,0.85,0.5c0,0.08,0.02,0.19,0.08,0.23c0.4,0.37,0.81,0.72,1.33,1.18c-0.97,0.04-1.14,0.58-1.17,1.3
			c-0.01,0.28-0.28,0.57-0.46,0.83c-0.26,0.38-0.54,0.74-0.82,1.11c0.04,0.06,0.08,0.11,0.12,0.17c-0.44-0.06-0.89-0.11-1.21-0.15
			c-0.15-0.31-0.22-0.6-0.39-0.76c-0.26-0.24-0.47-0.01-0.74,0.13c-0.27,0.14-0.71,0.02-1.05-0.06c-0.42-0.11-0.42-0.47-0.35-0.83
			c0.17-0.86-0.4-1.4-0.92-1.9c-0.18-0.17-0.67-0.02-1.02-0.02c-0.13,0-0.25,0-0.36,0c-0.12-0.25-0.23-0.47-0.43-0.88
			c-0.41,0.44-0.74,0.79-0.98,1.05c-0.31,0.05-0.57,0.16-0.8,0.13c-0.28-0.04-0.6-0.15-0.77-0.34c-0.11-0.13-0.02-0.47,0.03-0.7
			c0.07-0.31,0.18-0.62,0.3-1.03c-1.31,0.43-1.42,1.64-2.11,2.37c-0.75,0.79-1.02,1.79-1.18,2.86c-0.54-0.78-1.11-0.67-1.95-0.16
			c-0.89,0.55-1.6,0.25-2.41-0.05c-0.42-0.15-0.88-0.17-1.33-0.23c-0.14-0.02-0.33,0.09-0.44,0.03c-0.57-0.31-1.13-0.65-1.74-0.91
			c-0.18-0.11-0.36-0.22-0.54-0.31c-0.09-0.05-0.22-0.12-0.3-0.09c-0.66,0.23-1.29,0.07-1.93-0.08c-0.38-0.09-0.77-0.16-1.2-0.25
			c0.22-1.15-0.39-1.76-1.31-2.18c-0.09-0.04-0.22-0.11-0.24-0.2c-0.24-0.94-0.48-1.88-0.68-2.83c-0.03-0.14,0.1-0.34,0.2-0.49
			c0.37-0.55,0.78-1.07,1.13-1.63c0.18-0.28,0.24-0.56-0.07-0.91c-0.34-0.38-0.51-0.92-0.76-1.38c-0.07-0.13-0.14-0.33-0.25-0.35
			c-1.13-0.28-1.25-1.39-1.77-2.16c-0.15-0.23-0.22-0.57-0.43-0.69c-0.23-0.14-0.57-0.09-0.88-0.04c-0.59-0.36-0.39-1.01-0.49-1.58
			c-0.03-0.2-0.09-0.48-0.23-0.56c-0.75-0.43-0.61-1.07-0.59-1.77c0.01-0.41-0.36-0.83-0.57-1.24c-0.21-0.4-0.4-0.82-1.02-0.59
			c-0.12,0.05-0.35-0.2-0.53-0.31c-0.23-0.14-0.45-0.28-0.82-0.5c0.05-0.18,0.15-0.47,0.23-0.76c0.03-0.11,0.03-0.25,0-0.36
			c-0.23-0.91-1.88-1.7-2.49-1.12c-0.4,0.38-0.83,0.35-1.26,0.46c-0.18,0.05-0.4-0.06-0.78-0.12c0.28-0.38,0.49-0.64,0.67-0.93
			c0.19-0.3,0.36-0.61,0.51-0.93c0.13-0.29,0.2-0.61,0.33-0.9c0.25-0.56,0.14-1.26-0.28-1.55c-0.41-0.28-1.49-0.09-1.87,0.4
			c-0.26-0.38-0.51-0.73-0.76-1.09c-0.21,0.12-0.42,0.2-0.55,0.35c-0.18,0.21-0.37,0.46-0.41,0.72c-0.02,0.11,0.29,0.29,0.45,0.44
			c0.1,0.1,0.27,0.21,0.27,0.3c0,0.11-0.15,0.24-0.27,0.31c-0.15,0.08-0.32,0.1-0.49,0.15c-0.69,0.19-0.88,0.76-0.5,1.38
			c0.08,0.13,0.05,0.32,0.07,0.55c0.15-0.09,0.28-0.24,0.42-0.24c0.3-0.01,0.85,0.01,0.86,0.08c0.08,0.52,0.18,1.11,0,1.56
			c-0.12,0.3-0.69,0.52-1.09,0.59c-0.69,0.12-1.41,0.14-2.12,0.1c-0.24-0.01-0.68-0.38-0.65-0.51c0.13-0.58-0.24-0.61-0.6-0.67
			c-0.71-0.12-1.07-0.53-1.3-1.19c-0.11-0.32-0.49-0.56-0.78-0.86c-1.12,1.45-1.43-0.19-2.2-0.31c0.2-0.28,0.36-0.5,0.55-0.77
			c-0.12-0.14-0.28-0.27-0.38-0.45c-0.06-0.12-0.07-0.41-0.03-0.42c0.69-0.27,0.37-0.78,0.26-1.19c-0.21-0.79-0.21-0.83,0.63-1.19
			c-0.44-0.38-0.77-0.78-1.41-0.69c-0.18,0.03-0.39-0.03-0.55-0.11c-0.76-0.37-1.52-0.75-2.27-1.13c-0.38-0.19-0.73-0.29-1.14,0
			c-0.81,0.57-0.84,0.55-1.49-0.24c-0.09-0.11-0.21-0.2-0.35-0.33c-0.78,0.94-1.62-0.26-2.38,0.13c-0.54-0.62-0.45-1.23-0.13-1.9
			c0.28-0.58-0.05-1.39-0.65-1.79c-0.6-0.39-0.67-1.09-0.16-1.6c0.1-0.1,0.27-0.21,0.28-0.33c0.05-0.76,0.72-0.85,1.21-1.03
			c0.53-0.2,0.92-0.41,0.88-1.04c0-0.02,0-0.04,0-0.06c-0.05-0.36,0.58-0.71,0.05-1.07c-0.31-0.21-0.67-0.35-1.08-0.56
			c0.1-0.49,0.21-1,0.34-1.59c-0.45-0.35-0.6-0.87-0.02-1.5c-0.26-0.1-0.43-0.17-0.61-0.22c-0.85-0.23-1.7-0.45-2.55-0.67
			c-0.1-0.03-0.21-0.01-0.32-0.01c-1.05-0.03-1.28-0.34-0.89-1.46c-0.39,0.03-0.74,0.01-1.08,0.08c-1.02,0.22-2.02,0.51-3.04,0.71
			c-0.5,0.1-1.22-0.48-1.26-0.92c0.84-0.43,1.03-0.93,0.82-2.07c-0.26-0.15-0.48-0.29-0.71-0.42c-0.09-0.05-0.19-0.12-0.28-0.13
			c-0.89-0.07-1.78-0.12-2.67-0.17c-0.29-0.02-0.58,0.05-0.86,0.01c-0.46-0.07-0.54,0.29-0.55,0.54c-0.03,0.74-0.6,0.82-1.09,0.98
			c-0.62,0.21-1.18,0.14-1.62-0.45c-0.22-0.29-0.55-0.49-0.94-0.84c0-0.42,0-1.06,0-1.87c0.19-0.06,0.53-0.17,1.06-0.34
			c-0.22-0.33-0.43-0.65-0.65-0.96c-0.12-0.17-0.26-0.33-0.39-0.5c-0.26-0.34-0.51-0.59-1.01-0.72c-0.62-0.16-1.16-0.67-1.71-1.06
			c-0.06-0.05-0.02-0.4,0.08-0.48c0.72-0.6,0.87-1.29,0.46-2.15c-0.1-0.21-0.13-0.45-0.23-0.66c-0.06-0.15-0.16-0.36-0.28-0.39
			c-0.73-0.18-1.4-0.69-2.24-0.17c-0.3,0.18-0.92-0.04-1.35-0.21c-0.5-0.2-0.86-0.08-1.21,0.26c-0.09,0.09-0.22,0.23-0.3,0.21
			c-0.68-0.16-0.79,0.48-1.11,0.78c-0.41,0.39-0.73,0.88-1.14,1.27c-0.11,0.11-0.58,0.08-0.61,0c-0.34-0.79-0.61-1.61-0.93-2.49
			c-1.35,0.62-2.57-0.34-3.97-0.69c0.06-0.28,0.19-0.52,0.14-0.72c-0.08-0.34-0.19-0.79-0.44-0.95c-0.9-0.57-1.95-0.79-2.97-1.05
			c-0.86-0.22-1.71-0.48-2.36-1.16c-0.1-0.11-0.3-0.13-0.46-0.18c-0.37-0.12-0.77-0.18-1.1-0.36c-0.46-0.25-0.62-0.58-0.23-1.09
			c0.42-0.56,0.21-1.34-0.37-1.78c-0.27-0.2-0.34-1.23-0.03-1.43c0.45-0.29,0.27-0.6,0.11-0.88c-0.25-0.45-0.23-0.83,0.05-1.26
			c0.37-0.57,0.62-1.17,0.25-1.87c-0.08-0.15-0.02-0.42,0.05-0.6c0.37-0.89,0.89-1.65,1.98-2.07c0.55,0.42,1.19,0.9,1.84,1.39
			c0.12,0.09,0.26,0.2,0.39,0.2c0.87-0.01,1.47,0.27,1.37,1.47c0.54-0.23,0.95-0.42,1.36-0.58c0.35-0.14,0.73-0.2,1.05-0.39
			c0.22-0.13,0.35-0.42,0.51-0.65c0.79-1.12,0.79-1.12,2.26-0.74c0-0.44,0.1-0.87-0.02-1.23c-0.26-0.76-0.07-1.49,0.08-2.21
			c0.1-0.47,0.08-0.85-0.2-1.27c-0.21-0.32-0.22-0.77-0.36-1.15c-0.17-0.46-0.38-0.89-0.55-1.35c-0.06-0.16-0.09-0.34-0.1-0.51
			c0-0.05,0.07-0.1,0.11-0.15c0.67-0.91,0.61-1.27-0.38-1.87c1.21-0.63,1.1-1.56,0.69-2.62c-0.18-0.46-0.18-0.98-0.31-1.46
			c-0.03-0.12-0.24-0.29-0.35-0.28c-0.48,0.04-0.95,0.13-1.42,0.23c-0.38,0.08-0.78,0.35-1.12,0.27c-0.85-0.19-1.21,0.54-1.82,0.79
			c-0.02,0.01-0.02,0.04-0.04,0.05c-0.7,0.31-1.52,0.44-1.77,1.36c-0.02,0.06-0.58-0.06-0.89-0.04c-0.55,0.05-1.1,0.11-1.64,0.24
			c-0.45,0.11-0.62-0.14-0.79-0.46c-0.22-0.42-0.45-0.85-0.7-1.32c0.48-0.91,0.28-1.4-0.66-1.95c-0.21-0.12-0.47-0.33-0.51-0.53
			c-0.11-0.62-0.61-0.75-1.05-0.9c-0.44-0.15-0.68-0.37-0.87-0.81c-0.18-0.4-0.61-0.68-1.07-1.17c-0.02-0.3-0.3-0.69-0.85-0.88
			c-0.48-0.16-0.41-0.51-0.11-0.7c0.71-0.46,0.83-1.15,0.85-1.89c0-0.08-0.01-0.22,0.03-0.25c0.89-0.59,0.25-1.41,0.32-2.12
			c0.01-0.08-0.13-0.18-0.19-0.27c-0.08-0.11-0.19-0.23-0.21-0.35c-0.07-0.44-0.11-0.89-0.16-1.33c-0.05-0.42,0.48-0.89,1.1-0.92
			c0.49-0.02,0.68,0.34,0.71,0.78c0.01,0.14-0.04,0.29-0.07,0.52c0.48,0,0.95-0.03,1.4,0.01c0.31,0.02,0.61,0.23,0.9,0.19
			c0.65-0.07,1.33-0.15,1.94-0.4c0.85-0.34,1.64-0.81,2.44-1.26c0.34-0.19,0.51-0.49,0.34-0.92c-0.12-0.3-0.13-0.6,0.32-0.67
			c0.08-0.01,0.16-0.08,0.21-0.14c0.44-0.52,0.87-1.04,1.16-1.39c0.63-0.13,1.09-0.24,1.56-0.33c0.59-0.12,1.14,0,1.7,0.23
			c0.16,0.07,0.51-0.07,0.63-0.22c0.21-0.28,0.32-0.64,0.42-0.86c0.99,0.03,1.72-0.22,2.28-0.83c0.49-0.54,0.88-1.12,1.61-1.44
			c0.81-0.36,0.83-0.76,0.37-1.67c0.82-0.26,1.64-0.51,2.58-0.81c0.46,0.3,1.55-0.2,1.79-0.97c0.05-0.15,0.29-0.25,0.45-0.38
			c0.46,0.92,0.61,0.94,1.5,0.45c0.36-0.2,0.81-0.22,1.2-0.36c0.38-0.14,0.77-0.29,1.11-0.5c0.49-0.3,0.89-0.56,1.54-0.29
			c0.67,0.27,1.17-0.34,1.72-0.64c0.07-0.04-0.01-0.31,0.02-0.46c0.02-0.13,0.08-0.3,0.18-0.34c0.09-0.04,0.3,0.01,0.37,0.09
			c0.45,0.54,0.85,1.12,1.33,1.63c0.18,0.19,0.52,0.24,0.79,0.34C95.81,58.54,95.98,58.55,96.2,58.6z M64.36,74.46
			c0.55,0.36,1.04,0.45,1.3,0.19c0-0.33-0.01-0.71,0.17-0.92c0.51-0.59,1.1-1.1,1.67-1.66c-0.31-0.71-0.76-0.99-1.52-0.94
			c-0.97,0.06-1.48,0.41-1.66,1c0.51-0.04,1.08-0.09,1.66-0.14C65.41,72.83,64.89,73.63,64.36,74.46z"/>
	</g>
</g>
<g>
	<path class="st2" d="M256.61,113.84c-5.2,8.32-12.9,17.47-20.18,23.09c-2.7-2.29-7.28-5.51-10.09-7.18
		c6.97-4.99,14.14-13.31,17.58-19.97L256.61,113.84z M320.89,65.27h-91.63V53.52h39v-9.98h13.1v9.98h39.52V65.27z M281.37,105.73
		v21.95c0,6.24-1.14,9.36-5.72,11.13c-4.58,1.77-10.71,1.87-19.03,1.87c-0.62-3.64-2.29-8.42-3.95-11.86
		c5.3,0.21,11.86,0.31,13.52,0.21c1.87-0.1,2.29-0.42,2.29-1.77v-21.53h-27.35V72.55h68.75v33.18H281.37z M253.49,95.12h43.27V83.26
		h-43.27V95.12z M304.04,109.78c6.45,6.45,14.87,15.81,18.83,21.95l-12.17,6.14c-3.54-6.03-11.44-15.7-17.99-22.67L304.04,109.78z"
		/>
	<path class="st2" d="M428.32,54.45c-3.74,9.98-8.32,21.74-12.58,30.89c8.84,9.26,10.61,17.47,10.61,24.13
		c0,7.8-1.66,12.9-5.82,15.6c-1.87,1.46-4.47,2.39-7.28,2.81c-2.39,0.31-5.82,0.31-9.05,0.1c-0.1-3.33-1.25-8.63-3.12-11.96
		c2.5,0.21,4.68,0.21,6.55,0.21c1.56,0,3.12-0.31,4.16-0.94c1.98-1.14,2.7-3.64,2.7-7.07c0-5.72-2.39-13.31-10.82-21.32
		c3.12-7.49,6.66-17.99,9.15-26h-13.1v79.67h-12.17V51.54c-3.12,7.9-6.76,15.39-11.13,22.15h7.7v10.82h-15.5
		c-2.18,2.7-4.37,5.1-6.66,7.59h18.72v46.91h-11.75v-3.95h-16.75v5.3h-11.23v-31.51c-1.77,1.14-3.54,2.18-5.2,3.12
		c-1.35-2.6-4.89-7.8-7.18-10.3c9.26-4.47,17.58-10.19,24.86-17.16h-22.15V73.69h18.1v-8.53h-13.62V54.56h13.62V44.47h11.44v10.09
		h10.71v5.3c1.98-3.64,3.54-7.59,5.1-11.65l10.92,3.02v-1.98h29.95l1.87-0.42L428.32,54.45z M368.93,101.88h-16.75v6.55h16.75
		V101.88z M368.93,125.18v-7.38h-16.75v7.38H368.93z M362.9,73.69c1.98-2.7,3.85-5.51,5.72-8.53h-7.8v8.53H362.9z"/>
	<path class="st2" d="M483.54,69.33c-2.08,4.99-4.68,10.09-7.59,14.98v56.16H464.3V99.8c-2.08,2.29-4.26,4.26-6.55,6.14
		c-1.04-1.35-2.5-3.22-4.06-5.1c-1.04,13.94-3.64,29.23-9.67,40.25c-2.29-2.18-7.7-5.62-10.61-6.86
		c8.11-14.98,8.84-36.61,8.84-51.79V54.14h37.65v-10.5h12.9v10.5h37.75v11.44h-76.23v16.95c0,3.22-0.1,6.86-0.21,10.71
		c7.7-7.49,14.14-18.2,17.27-27.25L483.54,69.33z M531.07,91.9h-10.5v35.36c0,6.45-1.25,9.57-5.3,11.54
		c-4.06,1.87-9.98,2.18-18.41,2.08c-0.42-3.33-2.08-8.42-3.74-11.86c5.51,0.21,11.34,0.21,13.21,0.21c1.66,0,2.29-0.52,2.29-2.08
		V91.9h-26.83V80.46h26.83v-12.9h11.96v12.9h10.5V91.9z M492.17,96.37c4.37,6.03,8.53,13.94,10.4,19.34l-10.4,4.68
		c-1.66-5.41-5.82-13.83-9.88-19.97L492.17,96.37z"/>
</g>
<g>
	<path class="st2" d="M245,164.29c-0.39-0.63-0.88-1.18-1.47-1.66c-0.59-0.48-1.25-0.85-2-1.11c-0.74-0.27-1.52-0.4-2.33-0.4
		c-1.48,0-2.74,0.29-3.78,0.86c-1.04,0.57-1.88,1.34-2.52,2.31c-0.64,0.97-1.11,2.07-1.41,3.3c-0.29,1.23-0.44,2.51-0.44,3.82
		c0,1.26,0.15,2.49,0.44,3.67c0.29,1.19,0.76,2.26,1.41,3.21c0.64,0.95,1.48,1.72,2.52,2.29c1.04,0.57,2.3,0.86,3.78,0.86
		c2.02,0,3.59-0.62,4.73-1.85s1.83-2.86,2.08-4.87h6.38c-0.17,1.88-0.6,3.57-1.3,5.08c-0.7,1.51-1.62,2.8-2.77,3.86
		c-1.15,1.06-2.49,1.88-4.03,2.44c-1.54,0.56-3.23,0.84-5.08,0.84c-2.3,0-4.36-0.4-6.19-1.2c-1.83-0.8-3.38-1.9-4.64-3.3
		c-1.26-1.4-2.23-3.04-2.9-4.93c-0.67-1.89-1.01-3.93-1.01-6.11c0-2.24,0.34-4.32,1.01-6.24c0.67-1.92,1.64-3.59,2.9-5.02
		c1.26-1.43,2.81-2.55,4.64-3.36c1.83-0.81,3.9-1.22,6.19-1.22c1.65,0,3.21,0.24,4.68,0.71c1.47,0.48,2.79,1.17,3.95,2.08
		c1.16,0.91,2.12,2.04,2.88,3.38c0.76,1.34,1.23,2.88,1.43,4.62h-6.38C245.64,165.62,245.39,164.92,245,164.29z"/>
	<path class="st2" d="M259.66,165.17c0.67-1.92,1.64-3.59,2.9-5.02c1.26-1.43,2.81-2.55,4.64-3.36c1.83-0.81,3.9-1.22,6.19-1.22
		c2.32,0,4.4,0.41,6.22,1.22c1.82,0.81,3.36,1.93,4.62,3.36s2.23,3.1,2.9,5.02c0.67,1.92,1.01,4,1.01,6.24
		c0,2.18-0.34,4.22-1.01,6.11c-0.67,1.89-1.64,3.54-2.9,4.93c-1.26,1.4-2.8,2.5-4.62,3.3c-1.82,0.8-3.89,1.2-6.22,1.2
		c-2.3,0-4.36-0.4-6.19-1.2c-1.83-0.8-3.38-1.9-4.64-3.3c-1.26-1.4-2.23-3.04-2.9-4.93c-0.67-1.89-1.01-3.93-1.01-6.11
		C258.65,169.17,258.98,167.09,259.66,165.17z M265.68,175.09c0.29,1.19,0.76,2.26,1.41,3.21c0.64,0.95,1.48,1.72,2.52,2.29
		c1.04,0.57,2.3,0.86,3.78,0.86c1.48,0,2.74-0.29,3.78-0.86c1.04-0.57,1.88-1.34,2.52-2.29c0.64-0.95,1.11-2.02,1.41-3.21
		c0.29-1.19,0.44-2.42,0.44-3.67c0-1.32-0.15-2.59-0.44-3.82c-0.29-1.23-0.76-2.33-1.41-3.3c-0.64-0.97-1.48-1.74-2.52-2.31
		c-1.04-0.57-2.3-0.86-3.78-0.86c-1.48,0-2.74,0.29-3.78,0.86c-1.04,0.57-1.88,1.34-2.52,2.31c-0.64,0.97-1.11,2.07-1.41,3.3
		c-0.29,1.23-0.44,2.51-0.44,3.82C265.24,172.67,265.39,173.9,265.68,175.09z"/>
	<path class="st2" d="M302.2,186.28l-9.7-29.99h6.76l6.68,21.08h0.08l6.76-21.08h6.8l-9.95,29.99H302.2z"/>
	<path class="st2" d="M331.81,156.29v29.99h-6.59v-29.99H331.81z"/>
	<path class="st2" d="M353.61,156.29c1.93,0,3.73,0.31,5.4,0.92c1.67,0.62,3.11,1.54,4.33,2.77c1.22,1.23,2.17,2.77,2.86,4.62
		c0.69,1.85,1.03,4.02,1.03,6.51c0,2.18-0.28,4.2-0.84,6.05c-0.56,1.85-1.41,3.44-2.54,4.79c-1.13,1.34-2.55,2.4-4.24,3.17
		c-1.69,0.77-3.69,1.16-5.99,1.16h-12.94v-29.99H353.61z M353.15,180.74c0.95,0,1.88-0.15,2.77-0.46c0.9-0.31,1.69-0.82,2.39-1.53
		c0.7-0.71,1.26-1.64,1.68-2.79c0.42-1.15,0.63-2.55,0.63-4.2c0-1.51-0.15-2.88-0.44-4.09s-0.78-2.26-1.45-3.13s-1.56-1.53-2.67-2
		c-1.11-0.46-2.47-0.69-4.09-0.69h-4.7v18.9H353.15z"/>
	<path class="st2" d="M386.83,172.25v5.12h-12.64v-5.12H386.83z"/>
	<path class="st2" d="M402.62,186.28v-19.07h-7.39v-4.49c1.04,0.03,2.04-0.05,3-0.23c0.97-0.18,1.83-0.5,2.6-0.97
		c0.77-0.46,1.42-1.07,1.95-1.83c0.53-0.76,0.88-1.69,1.05-2.81h4.75v29.4H402.62z"/>
	<path class="st2" d="M426.94,181.28c0.7,0.73,1.57,1.09,2.6,1.09c1.09,0,1.99-0.31,2.69-0.94c0.7-0.63,1.26-1.4,1.68-2.31
		c0.42-0.91,0.72-1.88,0.9-2.92c0.18-1.04,0.3-1.96,0.36-2.77l-0.08-0.08c-0.81,1.18-1.76,2.02-2.86,2.52
		c-1.09,0.5-2.35,0.76-3.78,0.76c-1.26,0-2.49-0.27-3.7-0.82c-1.2-0.55-2.23-1.28-3.07-2.21c-0.78-0.9-1.36-1.92-1.72-3.07
		c-0.36-1.15-0.55-2.31-0.55-3.49c0-1.51,0.25-2.92,0.74-4.22c0.49-1.3,1.19-2.44,2.1-3.4c0.91-0.97,2-1.73,3.25-2.29
		c1.26-0.56,2.66-0.84,4.2-0.84c2.24,0,4.08,0.44,5.52,1.32c1.44,0.88,2.6,2.04,3.46,3.49c0.87,1.44,1.47,3.07,1.81,4.89
		c0.34,1.82,0.5,3.65,0.5,5.5c0,1.82-0.21,3.64-0.63,5.46c-0.42,1.82-1.09,3.46-2.02,4.94c-0.92,1.47-2.11,2.66-3.57,3.57
		c-1.46,0.91-3.23,1.37-5.33,1.37c-1.26,0-2.44-0.17-3.53-0.52c-1.09-0.35-2.06-0.88-2.9-1.58s-1.53-1.55-2.06-2.56
		s-0.88-2.16-1.05-3.44h5.67C425.79,179.7,426.24,180.55,426.94,181.28z M431.98,171.69c0.59-0.29,1.08-0.69,1.47-1.2
		c0.39-0.5,0.69-1.08,0.88-1.74c0.2-0.66,0.29-1.35,0.29-2.08c0-0.67-0.1-1.34-0.31-2c-0.21-0.66-0.52-1.25-0.92-1.76
		c-0.41-0.52-0.9-0.93-1.49-1.24c-0.59-0.31-1.26-0.46-2.02-0.46c-0.7,0-1.33,0.15-1.89,0.46c-0.56,0.31-1.04,0.71-1.43,1.22
		c-0.39,0.5-0.69,1.08-0.88,1.72c-0.2,0.64-0.29,1.3-0.29,1.97c0,0.7,0.09,1.38,0.27,2.04c0.18,0.66,0.46,1.25,0.82,1.76
		c0.36,0.52,0.83,0.94,1.41,1.26s1.24,0.48,2,0.48C430.69,172.13,431.39,171.98,431.98,171.69z"/>
	<path class="st2" d="M495.7,165.29v3.77h-24.5v-3.77h9.44v-1h-7.22v-0.11l-2.81,1.33c-0.19-0.74-0.52-1.7-0.89-2.7v26.05h-4.85
		v-22.05c-0.22,1.96-0.56,3.92-0.93,5.48l-3.85-1.33c0.74-2.55,1.26-6.74,1.44-9.81l3.33,0.41v-7.84h4.85v5.74l2.11-0.89l0.52,1.15
		v-3.66h8.29v-2.33h5.33v2.33h8.55v3.74h-8.55v1h7.47v3.51h-7.47v1H495.7z M480.64,160.78v-1h-8.25c0.37,0.81,0.7,1.67,1.04,2.44
		v-1.44H480.64z M493.41,183.98c0,2.22-0.41,3.48-1.92,4.18c-1.48,0.74-3.4,0.78-5.96,0.78c-0.19-1.33-0.81-3.29-1.41-4.55
		c1.29,0.11,3.07,0.07,3.55,0.07c0.48,0,0.67-0.15,0.67-0.59v-0.41h-9.81v5.48h-4.96V170.1h19.83V183.98z M478.53,173.95v1.15h9.81
		v-1.15H478.53z M488.34,179.83v-1.04h-9.81v1.04H488.34z"/>
	<path class="st2" d="M511.61,163h5.85v4.48h-2.59l1.22,0.3c-0.59,1.29-1.07,2.48-1.52,3.48h2.29v4.48h-5.25v2.22h4.88v4.48h-4.88
		v6.33h-4.96v-6.33h-5.18v-4.48h5.18v-2.22h-5.48v-4.48h2.37c-0.22-1.07-0.59-2.41-1.04-3.48l1.18-0.3h-3.4V163h6.37v-1.89h-5.03
		v-4.4h5.03v-2.85h4.96v2.85h4.51v4.4h-4.51V163z M510.46,170.95c0.37-1,0.78-2.33,1.07-3.48h-4.74c0.48,1.18,0.92,2.55,1.04,3.48
		l-1.07,0.3h4.77L510.46,170.95z M534.81,168.99c-0.67,4.48-1.85,8.58-3.59,12.03c1.41,1.52,3,2.78,4.81,3.7
		c-1.15,0.96-2.7,2.89-3.48,4.22c-1.52-0.96-2.89-2.15-4.11-3.51c-1.07,1.33-2.22,2.52-3.51,3.51c-0.52-0.81-1.37-1.74-2.22-2.55
		v2.44h-4.85v-33.64h16.06v6.92c0,2.18-0.44,3.48-2.07,4.18c-1.59,0.7-3.66,0.74-6.33,0.74c-0.19-1.41-0.85-3.33-1.44-4.59
		c1.52,0.07,3.63,0.07,4.14,0.07c0.55-0.04,0.74-0.11,0.74-0.52v-2.15h-6.25v8.18h8.07l0.85-0.18L534.81,168.99z M522.71,184.24
		c1-0.92,1.89-1.92,2.7-3.03c-1.04-1.85-1.96-3.88-2.7-6.03V184.24z M526.12,172.25c0.48,1.48,1.11,2.89,1.85,4.22
		c0.55-1.33,1-2.74,1.33-4.22H526.12z"/>
</g>
</svg>
